<svg xmlns="http://www.w3.org/2000/svg">
  <defs>
    <symbol viewBox="0 0 48 48" id="chrome">
      <path fill="#4caf50" d="M44 24c0 11.044-8.956 20-20 20S4 35.044 4 24 12.956 4 24 4s20 8.956 20 20"/>
      <path fill="#ffc107" d="M24 4v20l8 4-8.843 16H24c11.053 0 20-8.947 20-20S35.053 4 24 4"/>
      <path fill="#4caf50" d="M44 24c0 11.044-8.956 20-20 20S4 35.044 4 24 12.956 4 24 4s20 8.956 20 20"/>
      <path fill="#ffc107" d="M24 4v20l8 4-8.843 16H24c11.053 0 20-8.947 20-20S35.053 4 24 4"/>
      <path fill="#f44336" d="M41.84 15H24v13l-3-1L7.16 13.26h-.02C10.68 7.69 16.91 4 24 4c7.8 0 14.55 4.48 17.84 11"/>
      <path fill="#dd2c00" d="m7.158 13.264 8.843 14.862L21 27z"/>
      <path fill="#558b2f" d="m23.157 44 8.934-16.059L28 25z"/>
      <path fill="#f9a825" d="M41.865 15H24l-1.579 4.58z"/>
      <path fill="#fff" d="M33 24c0 4.969-4.031 9-9 9s-9-4.031-9-9 4.031-9 9-9 9 4.031 9 9"/>
      <path fill="#2196f3" d="M31 24c0 3.867-3.133 7-7 7s-7-3.133-7-7 3.133-7 7-7 7 3.133 7 7"/>
    </symbol>
    <symbol viewBox="0 0 512 512" id="firefox">
      <defs>
        <radialGradient id="b" cx="87.4%" cy="-12.9%" r="128%" gradientTransform="matrix(.8 0 0 1 .178 .129)">
          <stop offset=".13" stop-color="#ffbd4f"/>
          <stop offset=".28" stop-color="#ff980e"/>
          <stop offset=".47" stop-color="#ff3750"/>
          <stop offset=".78" stop-color="#eb0878"/>
          <stop offset=".86" stop-color="#e50080"/>
        </radialGradient>
        <radialGradient id="c" cx="49%" cy="40%" r="128%" gradientTransform="matrix(.82 0 0 1 .088 0)">
          <stop offset=".3" stop-color="#960e18"/>
          <stop offset=".35" stop-color="#b11927" stop-opacity=".74"/>
          <stop offset=".43" stop-color="#db293d" stop-opacity=".34"/>
          <stop offset=".5" stop-color="#f5334b" stop-opacity=".09"/>
          <stop offset=".53" stop-color="#ff3750" stop-opacity="0"/>
        </radialGradient>
        <radialGradient id="d" cx="48%" cy="-12%" r="140%">
          <stop offset=".13" stop-color="#fff44f"/>
          <stop offset=".53" stop-color="#ff980e"/>
        </radialGradient>
        <radialGradient id="e" cx="22.76%" cy="110.11%" r="100%">
          <stop offset=".35" stop-color="#3a8ee6"/>
          <stop offset=".67" stop-color="#9059ff"/>
          <stop offset="1" stop-color="#c139e6"/>
        </radialGradient>
        <radialGradient id="f" cx="52%" cy="33%" r="59%" gradientTransform="scale(.9 1)">
          <stop offset=".21" stop-color="#9059ff" stop-opacity="0"/>
          <stop offset=".97" stop-color="#6e008b" stop-opacity=".6"/>
        </radialGradient>
        <radialGradient id="g" cx="210%" cy="-100%" r="290%">
          <stop offset=".1" stop-color="#ffe226"/>
          <stop offset=".79" stop-color="#ff7139"/>
        </radialGradient>
        <radialGradient id="h" cx="84%" cy="-41%" r="180%">
          <stop offset=".11" stop-color="#fff44f"/>
          <stop offset=".46" stop-color="#ff980e"/>
          <stop offset=".72" stop-color="#ff3647"/>
          <stop offset=".9" stop-color="#e31587"/>
        </radialGradient>
        <radialGradient id="i" cx="16.1%" cy="-18.6%" r="348.8%" gradientTransform="scale(1 .47)rotate(84 .279 -.297)">
          <stop offset="0" stop-color="#fff44f"/>
          <stop offset=".3" stop-color="#ff980e"/>
          <stop offset=".57" stop-color="#ff3647"/>
          <stop offset=".74" stop-color="#e31587"/>
        </radialGradient>
        <radialGradient id="j" cx="18.9%" cy="-42.5%" r="238.4%">
          <stop offset=".14" stop-color="#fff44f"/>
          <stop offset=".48" stop-color="#ff980e"/>
          <stop offset=".66" stop-color="#ff3647"/>
          <stop offset=".9" stop-color="#e31587"/>
        </radialGradient>
        <radialGradient id="k" cx="159.3%" cy="-44.72%" r="313.1%">
          <stop offset=".09" stop-color="#fff44f"/>
          <stop offset=".63" stop-color="#ff980e"/>
        </radialGradient>
        <linearGradient id="a" x1="87.25%" x2="9.4%" y1="15.5%" y2="93.1%">
          <stop offset=".05" stop-color="#fff44f"/>
          <stop offset=".37" stop-color="#ff980e"/>
          <stop offset=".53" stop-color="#ff3647"/>
          <stop offset=".7" stop-color="#e31587"/>
        </linearGradient>
        <linearGradient id="l" x1="80%" x2="18%" y1="14%" y2="84%">
          <stop offset=".17" stop-color="#fff44f" stop-opacity=".8"/>
          <stop offset=".6" stop-color="#fff44f" stop-opacity="0"/>
        </linearGradient>
      </defs>
      <path fill="url(#a)"
            d="M478.711 166.353c-10.445-25.124-31.6-52.248-48.212-60.821 13.52 26.505 21.345 53.093 24.335 72.936 0 .039.015.136.047.4C427.706 111.135 381.627 83.823 344 24.355c-1.9-3.007-3.805-6.022-5.661-9.2a74 74 0 0 1-2.646-4.972A43.7 43.7 0 0 1 332.1.677a.626.626 0 0 0-.546-.644.8.8 0 0 0-.451 0c-.034.012-.084.051-.12.065-.053.021-.12.069-.176.1.027-.036.083-.117.1-.136-60.37 35.356-80.85 100.761-82.732 133.484a120.25 120.25 0 0 0-66.142 25.488 71 71 0 0 0-6.225-4.7 111.34 111.34 0 0 1-.674-58.732c-24.688 11.241-43.89 29.01-57.85 44.7h-.111c-9.527-12.067-8.855-51.873-8.312-60.184-.114-.515-7.107 3.63-8.023 4.255a175 175 0 0 0-23.486 20.12 210.5 210.5 0 0 0-22.442 26.913c0 .012-.007.026-.011.038 0-.013.007-.026.011-.038a202.8 202.8 0 0 0-32.247 72.805c-.115.521-.212 1.061-.324 1.586-.452 2.116-2.08 12.7-2.365 15-.022.177-.032.347-.053.524a229 229 0 0 0-3.9 33.157c0 .41-.025.816-.025 1.227C16 388.418 123.6 496 256.324 496c118.865 0 217.56-86.288 236.882-199.63.407-3.076.733-6.168 1.092-9.271 4.777-41.21-.53-84.525-15.587-120.746M201.716 354.447c1.124.537 2.18 1.124 3.334 1.639.048.033.114.07.163.1a126 126 0 0 1-3.497-1.739M454.9 178.927l-.032-.233c.012.085.027.174.04.259z"/>
      <path fill="url(#b)"
            d="M478.711 166.353c-10.445-25.124-31.6-52.248-48.212-60.821 13.52 26.505 21.345 53.093 24.335 72.936 0-.058.011.048.036.226l.04.259c22.675 61.47 10.322 123.978-7.479 162.175-27.539 59.1-94.215 119.67-198.576 116.716C136.1 454.651 36.766 370.988 18.223 261.41c-3.379-17.28 0-26.054 1.7-40.084-2.071 10.816-2.86 13.94-3.9 33.157 0 .41-.025.816-.025 1.227C16 388.418 123.6 496 256.324 496c118.865 0 217.56-86.288 236.882-199.63.407-3.076.733-6.168 1.092-9.271 4.777-41.21-.53-84.525-15.587-120.746"/>
      <path fill="url(#c)"
            d="M478.711 166.353c-10.445-25.124-31.6-52.248-48.212-60.821 13.52 26.505 21.345 53.093 24.335 72.936 0-.058.011.048.036.226l.04.259c22.675 61.47 10.322 123.978-7.479 162.175-27.539 59.1-94.215 119.67-198.576 116.716C136.1 454.651 36.766 370.988 18.223 261.41c-3.379-17.28 0-26.054 1.7-40.084-2.071 10.816-2.86 13.94-3.9 33.157 0 .41-.025.816-.025 1.227C16 388.418 123.6 496 256.324 496c118.865 0 217.56-86.288 236.882-199.63.407-3.076.733-6.168 1.092-9.271 4.777-41.21-.53-84.525-15.587-120.746"/>
      <path fill="url(#d)"
            d="M361.922 194.6c.524.368 1 .734 1.493 1.1a130.7 130.7 0 0 0-22.31-29.112C266.4 91.892 321.516 4.626 330.811.194c.027-.036.083-.117.1-.136-60.37 35.356-80.85 100.761-82.732 133.484 2.8-.194 5.592-.429 8.442-.429 45.051 0 84.289 24.77 105.301 61.487"/>
      <path fill="url(#e)"
            d="M256.772 209.514c-.393 5.978-21.514 26.593-28.9 26.593-68.339 0-79.432 41.335-79.432 41.335 3.027 34.81 27.261 63.475 56.611 78.643 1.339.692 2.694 1.317 4.05 1.935a133 133 0 0 0 7.059 2.886 106.7 106.7 0 0 0 31.271 6.031c119.78 5.618 142.986-143.194 56.545-186.408 22.137-3.85 45.115 5.053 57.947 14.067-21.012-36.714-60.25-61.484-105.3-61.484-2.85 0-5.641.235-8.442.429a120.25 120.25 0 0 0-66.142 25.488c3.664 3.1 7.8 7.244 16.514 15.828 16.302 16.067 58.13 32.705 58.219 34.657"/>
      <path fill="url(#f)"
            d="M256.772 209.514c-.393 5.978-21.514 26.593-28.9 26.593-68.339 0-79.432 41.335-79.432 41.335 3.027 34.81 27.261 63.475 56.611 78.643 1.339.692 2.694 1.317 4.05 1.935a133 133 0 0 0 7.059 2.886 106.7 106.7 0 0 0 31.271 6.031c119.78 5.618 142.986-143.194 56.545-186.408 22.137-3.85 45.115 5.053 57.947 14.067-21.012-36.714-60.25-61.484-105.3-61.484-2.85 0-5.641.235-8.442.429a120.25 120.25 0 0 0-66.142 25.488c3.664 3.1 7.8 7.244 16.514 15.828 16.302 16.067 58.13 32.705 58.219 34.657"/>
      <path fill="url(#g)"
            d="M170.829 151.036a244 244 0 0 1 4.981 3.3 111.34 111.34 0 0 1-.674-58.732c-24.688 11.241-43.89 29.01-57.85 44.7 1.155-.033 36.014-.66 53.543 10.732"/>
      <path fill="url(#h)"
            d="M18.223 261.41C36.766 370.988 136.1 454.651 248.855 457.844c104.361 2.954 171.037-57.62 198.576-116.716 17.8-38.2 30.154-100.7 7.479-162.175l-.008-.026-.032-.233c-.025-.178-.04-.284-.036-.226 0 .039.015.136.047.4 8.524 55.661-19.79 109.584-64.051 146.044l-.133.313c-86.245 70.223-168.774 42.368-185.484 30.966a144 144 0 0 1-3.5-1.743c-50.282-24.029-71.054-69.838-66.6-109.124-42.457 0-56.934-35.809-56.934-35.809s38.119-27.179 88.358-3.541c46.53 21.893 90.228 3.543 90.233 3.541-.089-1.952-41.917-18.59-58.223-34.656-8.713-8.584-12.85-12.723-16.514-15.828a71 71 0 0 0-6.225-4.7 283 283 0 0 0-4.981-3.3c-17.528-11.392-52.388-10.765-53.543-10.735h-.111c-9.527-12.067-8.855-51.873-8.312-60.184-.114-.515-7.107 3.63-8.023 4.255a175 175 0 0 0-23.486 20.12 210.5 210.5 0 0 0-22.442 26.919c0 .012-.007.026-.011.038 0-.013.007-.026.011-.038a202.8 202.8 0 0 0-32.247 72.805c-.115.521-8.65 37.842-4.44 57.199"/>
      <path fill="url(#i)"
            d="M341.105 166.587a130.7 130.7 0 0 1 22.31 29.112c1.323.994 2.559 1.985 3.608 2.952 54.482 50.2 25.936 121.2 23.807 126.26 44.261-36.46 72.575-90.383 64.051-146.044C427.706 111.135 381.627 83.823 344 24.355c-1.9-3.007-3.805-6.022-5.661-9.2a74 74 0 0 1-2.646-4.972A43.7 43.7 0 0 1 332.1.677a.626.626 0 0 0-.546-.644.8.8 0 0 0-.451 0c-.034.012-.084.051-.12.065-.053.021-.12.069-.176.1-9.291 4.428-64.407 91.694 10.298 166.389"/>
      <path fill="url(#j)"
            d="M367.023 198.651c-1.049-.967-2.285-1.958-3.608-2.952-.489-.368-.969-.734-1.493-1.1-12.832-9.014-35.81-17.917-57.947-14.067 86.441 43.214 63.235 192.026-56.545 186.408a106.7 106.7 0 0 1-31.271-6.031 135 135 0 0 1-7.059-2.886c-1.356-.618-2.711-1.243-4.05-1.935.048.033.114.07.163.1 16.71 11.4 99.239 39.257 185.484-30.966l.133-.313c2.129-5.054 30.675-76.057-23.807-126.258"/>
      <path fill="url(#k)"
            d="M148.439 277.443s11.093-41.335 79.432-41.335c7.388 0 28.509-20.615 28.9-26.593s-43.7 18.352-90.233-3.541c-50.239-23.638-88.358 3.541-88.358 3.541s14.477 35.809 56.934 35.809c-4.453 39.286 16.319 85.1 66.6 109.124 1.124.537 2.18 1.124 3.334 1.639-29.348-15.169-53.582-43.834-56.609-78.644"/>
      <path fill="url(#l)"
            d="M478.711 166.353c-10.445-25.124-31.6-52.248-48.212-60.821 13.52 26.505 21.345 53.093 24.335 72.936 0 .039.015.136.047.4C427.706 111.135 381.627 83.823 344 24.355c-1.9-3.007-3.805-6.022-5.661-9.2a74 74 0 0 1-2.646-4.972A43.7 43.7 0 0 1 332.1.677a.626.626 0 0 0-.546-.644.8.8 0 0 0-.451 0c-.034.012-.084.051-.12.065-.053.021-.12.069-.176.1.027-.036.083-.117.1-.136-60.37 35.356-80.85 100.761-82.732 133.484 2.8-.194 5.592-.429 8.442-.429 45.053 0 84.291 24.77 105.3 61.484-12.832-9.014-35.81-17.917-57.947-14.067 86.441 43.214 63.235 192.026-56.545 186.408a106.7 106.7 0 0 1-31.271-6.031 135 135 0 0 1-7.059-2.886c-1.356-.618-2.711-1.243-4.05-1.935.048.033.114.07.163.1a144 144 0 0 1-3.5-1.743c1.124.537 2.18 1.124 3.334 1.639-29.35-15.168-53.584-43.833-56.611-78.643 0 0 11.093-41.335 79.432-41.335 7.388 0 28.509-20.615 28.9-26.593-.089-1.952-41.917-18.59-58.223-34.656-8.713-8.584-12.85-12.723-16.514-15.828a71 71 0 0 0-6.225-4.7 111.34 111.34 0 0 1-.674-58.732c-24.688 11.241-43.89 29.01-57.85 44.7h-.111c-9.527-12.067-8.855-51.873-8.312-60.184-.114-.515-7.107 3.63-8.023 4.255a175 175 0 0 0-23.486 20.12 210.5 210.5 0 0 0-22.435 26.916c0 .012-.007.026-.011.038 0-.013.007-.026.011-.038a202.8 202.8 0 0 0-32.247 72.805c-.115.521-.212 1.061-.324 1.586-.452 2.116-2.486 12.853-2.77 15.156-.022.177.021-.176 0 0a280 280 0 0 0-3.544 33.53c0 .41-.025.816-.025 1.227C16 388.418 123.6 496 256.324 496c118.865 0 217.56-86.288 236.882-199.63.407-3.076.733-6.168 1.092-9.271 4.777-41.21-.53-84.525-15.587-120.746m-23.841 12.341.04.259-.008-.026z"/>
    </symbol>
    <symbol viewBox="0 0 48 48" id="microsoft-edge">
      <path fill="#1e88e5"
            d="M40.69 35.42c-9.15 11.88-21.41 8.8-26.23 6.1-7.35-4.11-12.5-13.68-9.44-23.25.9-2.82 2.27-5.23 3.98-7.23 1.67.13 3.65.13 6-.04 14-1 18 11 17 14-.51 1.53-2.32 2.02-3.97 2.13.16-.22.36-.54.64-1.02.87-1.54.98-4.49-1.73-6.27-2.61-1.7-5.43-.65-6.88 1.28-1.45 1.92-.88 4.81-.37 6.09 2.2 5.52 6.26 6.95 9.02 7.78s6.86.71 9.05-.19c2.18-.91 2.8-1.43 3.22-.97.43.46.13.99-.29 1.59"/>
      <path fill="#0d47a1"
            d="M40.732 35.42c-3.48 4.52-7.41 6.87-11.21 7.91-.03.01-.06.01-.08.02-2.2.42-3.95.08-5.85-.29-3.09-.6-7.35-4.01-8.38-10.18-.88-5.31 1.63-9.81 5.59-12.54-.26.24-.49.5-.7.78-1.45 1.92-.88 4.81-.37 6.09 2.2 5.52 6.26 6.95 9.02 7.78s6.86.71 9.05-.19c2.18-.91 2.8-1.43 3.22-.97.43.46.13.99-.29 1.59"/>
      <path fill="#00e5ff"
            d="M26.94 4.25a11.89 11.89 0 0 1-4.45 10.13c-1.02-.52-2.21-.94-3.65-1.22-4.07-.78-10.63 1.1-13.3 5.77-.88 1.53-1.25 3.1-1.41 4.55.04-1.71.33-3.46.89-5.21C8.31 8.01 17.86 3.05 26.94 4.25"/>
      <path fill="#00e676"
            d="M41.4 27.89c-2.76 2.78-6.27 2.86-8.67 2.73-2.41-.12-3.59-.82-4.69-1.5-1.11-.69-.48-1.37-.37-1.52s.38-.41 1-1.49c.29-.51.5-1.18.54-1.91 4.62-3.43 7.96-8.49 9.16-14.34 2.92 2.95 4.3 6.21 4.79 7.61.88 2.52 1.55 7.09-1.76 10.42"/>
      <path fill="#1de9b6"
            d="M38.37 9.85v.01c-1.2 5.85-4.54 10.91-9.16 14.34.03-.42 0-.87-.1-1.32 0-.02-.01-.04-.01-.05-.25-1.47-.99-3.33-2.22-4.77-1.22-1.44-2.52-2.73-4.39-3.68a11.89 11.89 0 0 0 4.45-10.13c.4.05.79.11 1.19.19 4.61.89 7.91 3.05 10.24 5.41"/>
    </symbol>
    <symbol viewBox="0 0 48 48" id="opera">
      <path fill="#ff1744"
            d="M24 4C12.947 4 4 12.947 4 24s8.947 20 20 20 20-8.947 20-20S35.053 4 24 4m0 35c-5.263 0-10-6.896-10-15S18.737 9 24 9s10 6.896 10 15-4.737 15-10 15"/>
      <path fill="#d50000"
            d="M36.564 8.445C34.413 6.972 31.89 6 29.263 6c-3.948 0-7.524 1.98-10.166 5.079C20.573 9.77 22.255 9 24 9c5.263 0 10 6.896 10 15s-4.737 15-10 15c-1.745 0-3.427-.77-4.903-2.079C21.739 40.02 25.315 42 29.263 42c2.626 0 5.15-.972 7.3-2.444C41.097 35.891 44 30.29 44 24s-2.903-11.89-7.436-15.555"/>
    </symbol>
    <symbol viewBox="0 0 48 48" id="safari">
      <path fill="#cfd8dc" d="M44 24c0 11.044-8.956 20-20 20S4 35.044 4 24 12.956 4 24 4s20 8.956 20 20"/>
      <path fill="#448aff" d="M41 24c0 9.391-7.609 17-17 17S7 33.391 7 24 14.609 7 24 7s17 7.609 17 17"/>
      <path fill="#ff3d00" d="m21.898 21.898 4.203 4.203L35.3 12.699z"/>
      <path fill="#bf360c" d="m24 24 11.301-11.301-9.199 13.402z"/>
      <path fill="#fff" d="M21.898 21.898 12.699 35.3l13.402-9.199z"/>
      <path fill="#bdbdbd" d="M24 24 12.699 35.301l13.402-9.199z"/>
      <path fill="#bbdefb"
            d="M17.102 10.699c.598-.301 1.199-.598 1.797-.801l1.203 2.703-1.801.797zM36 25h2.898c0-.301.102-.699.102-1s0-.699-.102-1H36zM12.699 14.102l2.102 2.098 1.398-1.398-2.098-2.102zm12.301-5C24.699 9 24.301 9 24 9s-.699 0-1 .102V12h2zm5.398 1.398c-.598-.301-1.199-.5-1.898-.699l-1.102 2.801 1.902.699zM12.5 20.5l.699-1.898L10.5 17.5c-.301.602-.5 1.199-.699 1.898zM12 23H9.102C9 23.301 9 23.699 9 24s0 .699.102 1H12zm23.5 4.5-.699 1.898L37.5 30.5c.301-.602.5-1.199.699-1.898zm2.602-8.602c-.203-.598-.5-1.199-.801-1.797L34.602 18.3l.797 1.801zm-2.801 15L33.199 31.8l-1.398 1.398 2.098 2.102zm-21.903-4.199-.797-1.801-2.703 1.203c.203.598.5 1.199.801 1.797zm16.301 4.903-1.801.797 1.203 2.703c.598-.203 1.199-.5 1.797-.801zM20.5 35.5l-1.898-.699L17.5 37.5c.602.301 1.199.5 1.898.699zm4.5 3.398V36h-2v2.898c.301 0 .699.102 1 .102s.699 0 1-.102"/>
    </symbol>
  </defs>
</svg>
